# WaveFront *.obj file (generated by Autodesk ATF)

mtllib BigZeiger.mtl

g BigZeiger

v 0.050000 0.050000 5.150000
v 0.200000 0.550000 0.650000
v -0.200000 0.550000 0.650000
v -0.050000 0.050000 5.150000
v 0.200000 0.550000 0.287228
v 0.265605 0.550000 0.227934
v 0.314256 0.550000 0.154089
v 0.342845 0.550000 0.070408
v 0.349549 0.550000 -0.017768
v 0.333939 0.550000 -0.104810
v 0.297011 0.550000 -0.185161
v 0.241124 0.550000 -0.253692
v 0.169844 0.550000 -0.306028
v 0.087722 0.550000 -0.338829
v 0.000000 0.550000 -0.350000
v -0.087722 0.550000 -0.338829
v -0.169844 0.550000 -0.306028
v -0.241124 0.550000 -0.253692
v -0.297011 0.550000 -0.185161
v -0.333939 0.550000 -0.104810
v -0.349549 0.550000 -0.017768
v -0.342845 0.550000 0.070408
v -0.314256 0.550000 0.154089
v -0.265605 0.550000 0.227934
v -0.200000 0.550000 0.287228
v 0.050000 0.000000 5.150000
v 0.200000 0.000000 0.650000
v -0.050000 0.000000 5.150000
v -0.200000 0.000000 0.650000
v -0.200000 0.000000 0.287228
v 0.200000 0.000000 0.287228
v 0.265605 0.000000 0.227934
v 0.314256 0.000000 0.154089
v 0.342845 0.000000 0.070408
v 0.349549 0.000000 -0.017768
v 0.333939 0.000000 -0.104810
v 0.297011 0.000000 -0.185161
v 0.241124 0.000000 -0.253692
v 0.169844 0.000000 -0.306028
v 0.087722 0.000000 -0.338829
v 0.000000 0.000000 -0.350000
v -0.087722 0.000000 -0.338829
v -0.169844 0.000000 -0.306028
v -0.241124 0.000000 -0.253692
v -0.297011 0.000000 -0.185161
v -0.333939 0.000000 -0.104810
v -0.349549 0.000000 -0.017768
v -0.342845 0.000000 0.070408
v -0.314256 0.000000 0.154089
v -0.265605 0.000000 0.227934
vt -2.263846 0.225000 0.000000
vt -2.263846 -0.175000 0.000000
vt 2.263846 0.075000 0.000000
vt 2.263846 -0.025000 0.000000
vt -0.200000 1.750000 0.000000
vt 0.200000 1.750000 0.000000
vt -0.200000 2.112772 0.000000
vt 0.200000 2.112772 0.000000
vt -0.087722 2.738829 0.000000
vt 0.000000 2.750000 0.000000
vt 0.087722 2.738829 0.000000
vt 0.169844 2.706028 0.000000
vt 0.241124 2.653692 0.000000
vt 0.265605 2.172066 0.000000
vt 0.297011 2.585161 0.000000
vt 0.314256 2.245911 0.000000
vt 0.333939 2.504810 0.000000
vt 0.342845 2.329592 0.000000
vt 0.349549 2.417768 0.000000
vt -0.169844 2.706028 0.000000
vt -0.241124 2.653692 0.000000
vt -0.265605 2.172066 0.000000
vt -0.297011 2.585161 0.000000
vt -0.314256 2.245911 0.000000
vt -0.333939 2.504810 0.000000
vt -0.342845 2.329592 0.000000
vt -0.349549 2.417768 0.000000
vt 4.502499 0.550000 0.000000
vt 0.000000 0.050000 0.000000
vt 4.502499 0.000000 0.000000
vt 0.000000 0.000000 0.000000
vt 0.100000 0.050000 0.000000
vt 0.000000 0.050000 0.000000
vt 0.100000 0.000000 0.000000
vt 0.000000 0.000000 0.000000
vt -0.000000 0.550000 0.000000
vt -0.000000 0.000000 0.000000
vt 4.502499 0.050000 0.000000
vt 4.502499 0.000000 0.000000
vt -0.000000 0.000000 0.000000
vt 0.362772 0.000000 0.000000
vt -0.000000 0.550000 0.000000
vt 0.362772 0.550000 0.000000
vt -0.550000 -0.336893 0.000000
vt -0.000000 -0.336893 0.000000
vt -0.550000 -0.248226 0.000000
vt -0.000000 -0.248226 0.000000
vt -0.550000 -0.159558 0.000000
vt -0.000000 -0.159558 0.000000
vt -0.550000 -0.070891 0.000000
vt -0.000000 -0.070891 0.000000
vt -0.550000 0.017776 0.000000
vt -0.000000 0.017776 0.000000
vt -0.550000 0.106443 0.000000
vt -0.000000 0.106443 0.000000
vt -0.550000 0.195110 0.000000
vt -0.000000 0.195110 0.000000
vt -0.550000 0.283777 0.000000
vt -0.000000 0.283777 0.000000
vt -0.550000 0.372444 0.000000
vt -0.000000 0.372444 0.000000
vt -0.550000 0.461112 0.000000
vt -0.000000 0.461112 0.000000
vt -0.550000 0.549779 0.000000
vt -0.000000 0.549779 0.000000
vt -0.550000 0.638446 0.000000
vt -0.000000 0.638446 0.000000
vt -0.550000 0.727113 0.000000
vt -0.000000 0.727113 0.000000
vt -0.550000 0.815780 0.000000
vt -0.000000 0.815780 0.000000
vt -0.550000 0.904447 0.000000
vt -0.000000 0.904447 0.000000
vt -0.550000 0.993114 0.000000
vt -0.000000 0.993114 0.000000
vt -0.550000 1.081782 0.000000
vt -0.000000 1.081782 0.000000
vt -0.550000 1.170449 0.000000
vt -0.000000 1.170449 0.000000
vt -0.550000 1.259116 0.000000
vt -0.000000 1.259116 0.000000
vt -0.550000 1.347783 0.000000
vt -0.000000 1.347783 0.000000
vt -0.550000 1.436450 0.000000
vt -0.000000 1.436450 0.000000
vt 0.000000 0.000000 0.000000
vt 0.362772 0.000000 0.000000
vt 0.000000 0.550000 0.000000
vt 0.362772 0.550000 0.000000
vt -0.200000 1.750000 0.000000
vt 0.200000 1.750000 0.000000
vt -0.200000 2.112772 0.000000
vt -0.000000 2.750000 0.000000
vt -0.087722 2.738829 0.000000
vt -0.050000 -2.750000 0.000000
vt 0.050000 -2.750000 0.000000
vt 0.087722 2.738829 0.000000
vt 0.200000 2.112772 0.000000
vt 0.169844 2.706028 0.000000
vt 0.241124 2.653692 0.000000
vt 0.265605 2.172066 0.000000
vt 0.297011 2.585161 0.000000
vt 0.314256 2.245911 0.000000
vt 0.333939 2.504810 0.000000
vt 0.342845 2.329592 0.000000
vt 0.349549 2.417768 0.000000
vt -0.169844 2.706028 0.000000
vt -0.241124 2.653692 0.000000
vt -0.265605 2.172066 0.000000
vt -0.297011 2.585161 0.000000
vt -0.314256 2.245911 0.000000
vt -0.333939 2.504810 0.000000
vt -0.342845 2.329592 0.000000
vt -0.349549 2.417768 0.000000
vn 0.000000 0.993884 0.110432
vn 0.000000 0.993884 0.110432
vn 0.000000 0.993884 0.110432
vn 0.000000 0.993884 0.110432
vn 0.000000 1.000000 0.000000
vn 0.000000 1.000000 0.000000
vn 0.000000 1.000000 0.000000
vn 0.000000 1.000000 0.000000
vn 0.000000 1.000000 0.000000
vn 0.000000 1.000000 0.000000
vn 0.000000 1.000000 0.000000
vn 0.000000 1.000000 0.000000
vn 0.000000 1.000000 0.000000
vn 0.000000 1.000000 0.000000
vn 0.000000 1.000000 0.000000
vn 0.000000 1.000000 0.000000
vn 0.000000 1.000000 0.000000
vn 0.000000 1.000000 0.000000
vn 0.000000 1.000000 0.000000
vn 0.000000 1.000000 0.000000
vn 0.000000 1.000000 0.000000
vn 0.000000 1.000000 0.000000
vn 0.000000 1.000000 0.000000
vn 0.000000 1.000000 0.000000
vn 0.000000 1.000000 0.000000
vn 0.000000 1.000000 0.000000
vn 0.000000 1.000000 0.000000
vn 0.999445 -0.000000 0.033315
vn 0.999445 -0.000000 0.033315
vn 0.999445 -0.000000 0.033315
vn 0.999445 -0.000000 0.033315
vn 0.000000 -0.000000 1.000000
vn 0.000000 -0.000000 1.000000
vn 0.000000 -0.000000 1.000000
vn 0.000000 -0.000000 1.000000
vn -0.999445 0.000000 0.033315
vn -0.999445 0.000000 0.033315
vn -0.999445 0.000000 0.033315
vn -0.999445 0.000000 0.033315
vn -1.000000 0.000000 0.000000
vn -1.000000 0.000000 0.000000
vn -1.000000 0.000000 0.000000
vn -1.000000 0.000000 0.000000
vn 0.571429 -0.000000 0.820652
vn 0.571429 -0.000000 0.820652
vn 0.758873 -0.000000 0.651239
vn 0.758873 -0.000000 0.651239
vn 0.897873 -0.000000 0.440254
vn 0.897873 -0.000000 0.440254
vn 0.979557 -0.000000 0.201165
vn 0.979557 -0.000000 0.201165
vn 0.998711 -0.000000 -0.050766
vn 0.998711 -0.000000 -0.050766
vn 0.954110 -0.000000 -0.299456
vn 0.954110 -0.000000 -0.299456
vn 0.848603 -0.000000 -0.529030
vn 0.848603 -0.000000 -0.529030
vn 0.688924 -0.000000 -0.724833
vn 0.688924 -0.000000 -0.724833
vn 0.485268 -0.000000 -0.874366
vn 0.485268 -0.000000 -0.874366
vn 0.250634 -0.000000 -0.968082
vn 0.250634 -0.000000 -0.968082
vn 0.000000 -0.000000 -1.000000
vn 0.000000 -0.000000 -1.000000
vn -0.250634 0.000000 -0.968082
vn -0.250634 0.000000 -0.968082
vn -0.485268 0.000000 -0.874366
vn -0.485268 0.000000 -0.874366
vn -0.688924 0.000000 -0.724833
vn -0.688924 0.000000 -0.724833
vn -0.848603 0.000000 -0.529030
vn -0.848603 0.000000 -0.529030
vn -0.954110 0.000000 -0.299456
vn -0.954110 0.000000 -0.299456
vn -0.998711 0.000000 -0.050766
vn -0.998711 0.000000 -0.050766
vn -0.979557 -0.000000 0.201165
vn -0.979557 -0.000000 0.201165
vn -0.897873 -0.000000 0.440254
vn -0.897873 -0.000000 0.440254
vn -0.758873 -0.000000 0.651239
vn -0.758873 -0.000000 0.651239
vn -0.571429 -0.000000 0.820652
vn -0.571429 -0.000000 0.820652
vn 1.000000 -0.000000 0.000000
vn 1.000000 -0.000000 0.000000
vn 1.000000 -0.000000 0.000000
vn 1.000000 -0.000000 0.000000
vn -0.000000 -1.000000 -0.000000
vn -0.000000 -1.000000 -0.000000
vn -0.000000 -1.000000 -0.000000
vn -0.000000 -1.000000 -0.000000
vn -0.000000 -1.000000 -0.000000
vn -0.000000 -1.000000 -0.000000
vn -0.000000 -1.000000 -0.000000
vn -0.000000 -1.000000 -0.000000
vn -0.000000 -1.000000 -0.000000
vn -0.000000 -1.000000 -0.000000
vn -0.000000 -1.000000 -0.000000
vn -0.000000 -1.000000 -0.000000
vn -0.000000 -1.000000 -0.000000
vn -0.000000 -1.000000 -0.000000
vn -0.000000 -1.000000 -0.000000
vn -0.000000 -1.000000 -0.000000
vn -0.000000 -1.000000 -0.000000
vn -0.000000 -1.000000 -0.000000
vn -0.000000 -1.000000 -0.000000
vn -0.000000 -1.000000 -0.000000
vn -0.000000 -1.000000 -0.000000
vn -0.000000 -1.000000 -0.000000
vn -0.000000 -1.000000 -0.000000
vn -0.000000 -1.000000 -0.000000
vn -0.000000 -1.000000 -0.000000
usemtl Aluminum_-_Anodized_Rough_(Red)
f 2/1/1 3/2/2 1/3/3
f 1/3/3 3/2/2 4/4/4
f 3/5/5 2/6/6 25/7/7
f 25/7/7 2/6/6 5/8/8
f 25/7/7 5/8/8 16/9/9
f 16/9/9 5/8/8 15/10/10
f 15/10/10 5/8/8 14/11/11
f 14/11/11 5/8/8 13/12/12
f 13/12/12 5/8/8 12/13/13
f 12/13/13 5/8/8 6/14/14
f 12/13/13 6/14/14 11/15/15
f 11/15/15 6/14/14 7/16/16
f 11/15/15 7/16/16 10/17/17
f 10/17/17 7/16/16 8/18/18
f 10/17/17 8/18/18 9/19/19
f 16/9/9 17/20/20 25/7/7
f 25/7/7 17/20/20 18/21/21
f 25/7/7 18/21/21 24/22/22
f 24/22/22 18/21/21 19/23/23
f 24/22/22 19/23/23 23/24/24
f 23/24/24 19/23/23 20/25/25
f 23/24/24 20/25/25 22/26/26
f 22/26/26 20/25/25 21/27/27
f 2/28/28 1/29/29 27/30/30
f 27/30/30 1/29/29 26/31/31
f 1/32/32 4/33/33 26/34/34
f 26/34/34 4/33/33 28/35/35
f 3/36/36 29/37/37 4/38/38
f 4/38/38 29/37/37 28/39/39
f 30/40/40 29/41/41 25/42/42
f 25/42/42 29/41/41 3/43/43
f 5/44/44 31/45/45 6/46/46
f 6/46/46 31/45/45 32/47/47
f 6/46/46 32/47/47 7/48/48
f 7/48/48 32/47/47 33/49/49
f 7/48/48 33/49/49 8/50/50
f 8/50/50 33/49/49 34/51/51
f 8/50/50 34/51/51 9/52/52
f 9/52/52 34/51/51 35/53/53
f 9/52/52 35/53/53 10/54/54
f 10/54/54 35/53/53 36/55/55
f 10/54/54 36/55/55 11/56/56
f 11/56/56 36/55/55 37/57/57
f 11/56/56 37/57/57 12/58/58
f 12/58/58 37/57/57 38/59/59
f 12/58/58 38/59/59 13/60/60
f 13/60/60 38/59/59 39/61/61
f 13/60/60 39/61/61 14/62/62
f 14/62/62 39/61/61 40/63/63
f 14/62/62 40/63/63 15/64/64
f 15/64/64 40/63/63 41/65/65
f 15/64/64 41/65/65 16/66/66
f 16/66/66 41/65/65 42/67/67
f 16/66/66 42/67/67 17/68/68
f 17/68/68 42/67/67 43/69/69
f 17/68/68 43/69/69 18/70/70
f 18/70/70 43/69/69 44/71/71
f 18/70/70 44/71/71 19/72/72
f 19/72/72 44/71/71 45/73/73
f 19/72/72 45/73/73 20/74/74
f 20/74/74 45/73/73 46/75/75
f 20/74/74 46/75/75 21/76/76
f 21/76/76 46/75/75 47/77/77
f 21/76/76 47/77/77 22/78/78
f 22/78/78 47/77/77 48/79/79
f 22/78/78 48/79/79 23/80/80
f 23/80/80 48/79/79 49/81/81
f 23/80/80 49/81/81 24/82/82
f 24/82/82 49/81/81 50/83/83
f 24/82/82 50/83/83 25/84/84
f 25/84/84 50/83/83 30/85/85
f 27/86/86 31/87/87 2/88/88
f 2/88/88 31/87/87 5/89/89
f 27/90/90 29/91/91 31/92/92
f 31/92/92 29/91/91 41/93/93
f 31/92/92 41/93/93 40/94/94
f 26/95/95 28/96/96 27/90/90
f 27/90/90 28/96/96 29/91/91
f 41/93/93 29/91/91 42/97/97
f 42/97/97 29/91/91 30/98/98
f 42/97/97 30/98/98 43/99/99
f 43/99/99 30/98/98 44/100/100
f 44/100/100 30/98/98 50/101/101
f 44/100/100 50/101/101 45/102/102
f 45/102/102 50/101/101 49/103/103
f 45/102/102 49/103/103 46/104/104
f 46/104/104 49/103/103 48/105/105
f 46/104/104 48/105/105 47/106/106
f 40/94/94 39/107/107 31/92/92
f 31/92/92 39/107/107 38/108/108
f 31/92/92 38/108/108 32/109/109
f 32/109/109 38/108/108 37/110/110
f 32/109/109 37/110/110 33/111/111
f 33/111/111 37/110/110 36/112/112
f 33/111/111 36/112/112 34/113/113
f 34/113/113 36/112/112 35/114/114
# 50 vertices
# 114 texture params
# 114 normals
# 96 facets

# 1 groups
